<?xml version="1.0" encoding="UTF-8" standalone="no"?>
<!-- Created with Inkscape (http://www.inkscape.org/) -->

<svg
   xmlns:dc="http://purl.org/dc/elements/1.1/"
   xmlns:cc="http://creativecommons.org/ns#"
   xmlns:rdf="http://www.w3.org/1999/02/22-rdf-syntax-ns#"
   xmlns:svg="http://www.w3.org/2000/svg"
   xmlns="http://www.w3.org/2000/svg"
   xmlns:sodipodi="http://sodipodi.sourceforge.net/DTD/sodipodi-0.dtd"
   xmlns:inkscape="http://www.inkscape.org/namespaces/inkscape"
   width="1024"
   height="1024"
   viewBox="0 0 270.93333 270.93334"
   version="1.1"
   id="svg8"
   inkscape:export-filename="/home/louis/Pictures/SVGs/make-pony/body.png"
   inkscape:export-xdpi="96"
   inkscape:export-ydpi="96"
   inkscape:version="0.92.4 5da689c313, 2019-01-14"
   sodipodi:docname="body.svg">
  <defs
     id="defs2">
    <inkscape:path-effect
       fuse_tolerance="0"
       vertical_pattern="false"
       prop_units="false"
       tang_offset="0"
       normal_offset="0"
       spacing="0"
       scale_y_rel="false"
       prop_scale="0.18517839"
       copytype="single_stretched"
       pattern="m 1.403165,6.0690781 c 0,-2.76 2.24,-5 5,-5 2.76,0 5,2.24 5,5 0,2.76 -2.24,4.9999999 -5,4.9999999 -2.76,0 -5,-2.2399999 -5,-4.9999999 z"
       is_visible="true"
       id="path-effect923"
       effect="skeletal" />
    <inkscape:path-effect
       fuse_tolerance="0"
       vertical_pattern="false"
       prop_units="false"
       tang_offset="0"
       normal_offset="0"
       spacing="0"
       scale_y_rel="false"
       prop_scale="0.19049494"
       copytype="single_stretched"
       pattern="M 0,5 C 0,2.24 2.24,0 5,0 7.76,0 10,2.24 10,5 10,7.76 7.76,10 5,10 2.24,10 0,7.76 0,5 Z"
       is_visible="true"
       id="path-effect919"
       effect="skeletal" />
    <inkscape:path-effect
       fuse_tolerance="0"
       vertical_pattern="false"
       prop_units="false"
       tang_offset="0"
       normal_offset="0"
       spacing="0"
       scale_y_rel="false"
       prop_scale="0.18543516"
       copytype="single_stretched"
       pattern="M 0,5 C 0,2.24 2.24,0 5,0 7.76,0 10,2.24 10,5 10,7.76 7.76,10 5,10 2.24,10 0,7.76 0,5 Z"
       is_visible="true"
       id="path-effect835"
       effect="skeletal" />
    <inkscape:path-effect
       fuse_tolerance="0"
       vertical_pattern="false"
       prop_units="false"
       tang_offset="0"
       normal_offset="0"
       spacing="0"
       scale_y_rel="false"
       prop_scale="0.22629472"
       copytype="single_stretched"
       pattern="M 0,5 C 0,2.24 2.24,0 5,0 7.76,0 10,2.24 10,5 10,7.76 7.76,10 5,10 2.24,10 0,7.76 0,5 Z"
       is_visible="true"
       id="path-effect831"
       effect="skeletal" />
    <inkscape:path-effect
       fuse_tolerance="0"
       vertical_pattern="false"
       prop_units="false"
       tang_offset="0"
       normal_offset="0"
       spacing="0"
       scale_y_rel="false"
       prop_scale="0.18902276"
       copytype="single_stretched"
       pattern="m 0,9.0090429 c 0,-2.76 2.24,-5 5,-5 2.76,0 5,2.24 5,5 0,2.7600001 -2.24,5.0000001 -5,5.0000001 -2.76,0 -5,-2.24 -5,-5.0000001 z"
       is_visible="true"
       id="path-effect827"
       effect="skeletal" />
  </defs>
  <sodipodi:namedview
     id="base"
     pagecolor="#ffffff"
     bordercolor="#666666"
     borderopacity="1.0"
     inkscape:pageopacity="0.0"
     inkscape:pageshadow="2"
     inkscape:zoom="0.98994949"
     inkscape:cx="469.96081"
     inkscape:cy="589.17572"
     inkscape:document-units="mm"
     inkscape:current-layer="layer1-3"
     showgrid="false"
     units="px"
     inkscape:window-width="1868"
     inkscape:window-height="1172"
     inkscape:window-x="52"
     inkscape:window-y="0"
     inkscape:window-maximized="1" />
  <metadata
     id="metadata5">
    <rdf:RDF>
      <cc:Work
         rdf:about="">
        <dc:format>image/svg+xml</dc:format>
        <dc:type
           rdf:resource="http://purl.org/dc/dcmitype/StillImage" />
        <dc:title></dc:title>
      </cc:Work>
    </rdf:RDF>
  </metadata>
  <g
     inkscape:label="Layer 1"
     inkscape:groupmode="layer"
     id="layer1"
     transform="translate(0,-26.06665)">
    <g
       transform="matrix(-1.5070778,0,0,1.5070778,343.71686,-148.40808)"
       id="layer1-3"
       inkscape:label="Layer 1">
      <path
         sodipodi:nodetypes="cssscssssc"
         inkscape:connector-curvature="0"
         id="path823"
         d="m 122.45708,193.25504 c 3.15692,3.92087 -6.03625,24.23253 9.04621,34.84062 11.35088,7.98352 42.81181,5.10969 51.2482,-3.47809 8.93659,-9.09696 3.63518,-22.87168 -5.53601,-25.3683 -12.59669,-3.42912 -12.45226,7.83826 -31.69465,5.33555 -3.67387,-10.69078 -1.68803,-24.23311 -0.49818,-30.97898 2.11163,-11.97185 -0.5175,-18.09179 -6.87235,-24.96149 -5.49015,-5.93494 -20.0187,-12.7792 -34.37291,-2.11326 -13.781188,10.24016 -10.478761,28.45952 -4.842122,36.22561 4.773322,6.57662 11.506702,10.46063 23.521812,10.49834 z"
         style="fill:#ffffff;fill-opacity:1;stroke:#000000;stroke-width:1.70000005;stroke-linecap:butt;stroke-linejoin:miter;stroke-miterlimit:4;stroke-dasharray:none;stroke-opacity:1"
         inkscape:label="body" />
      <g
         id="g887"
         inkscape:label="leg">
        <path
           style="fill:#ffffff;fill-opacity:1;stroke:none;stroke-width:0.25485322px;stroke-linecap:butt;stroke-linejoin:miter;stroke-opacity:1"
           d="m 132.21996,222.1979 c 0.922,1.56319 2.77758,1.77817 4.34205,1.90691 1.66218,0.13679 4.85845,-1.24656 4.85845,-1.24656 -0.0586,-2.54053 0.58675,1.23915 0.67019,1.93923 1.20663,8.12735 2.34418,16.27184 3.21593,24.44631 0.58002,6.61981 1.15094,13.2977 0.59884,19.93956 -0.23677,1.8949 -0.53627,4.47143 -2.63721,5.04044 -4.09723,1.61546 -8.6787,1.67992 -12.92145,0.69394 -1.69289,-0.35783 -3.6355,-1.26326 -3.67272,-3.37376 -0.39561,-4.17513 0.48196,-8.33483 1.07982,-12.44543 1.64842,-9.95166 3.98036,-19.83497 4.45298,-29.95724 0.13326,-2.31307 -0.036,-4.63925 0.0131,-6.9434 z"
           id="path825-5"
           inkscape:connector-curvature="0"
           sodipodi:nodetypes="csccccccccccc"
           inkscape:label="fill" />
        <path
           style="fill:#000000;stroke:none;stroke-width:0.26458332px;stroke-linecap:butt;stroke-linejoin:miter;stroke-opacity:1"
           d="m 131.91369,222.20101 c 0.55952,-0.12125 1.4333,5.11429 0.61284,13.84149 -0.46877,5.07992 -1.24568,9.97331 -2.39796,16.70928 -0.72259,4.23084 -1.73398,9.49188 -2.20416,14.32024 -0.14468,1.53484 -0.28217,3.08471 -0.1074,4.5467 0.062,0.46408 0.12688,0.88216 0.28281,1.19872 0.11791,0.18744 0.1901,0.34055 0.23552,0.31507 2.08818,0.96867 4.52499,1.22334 7.05532,1.27506 0.20562,0.002 0.41157,0.002 0.61768,3.3e-4 2.70712,-0.0257 5.32297,-0.41754 7.6125,-1.46553 0.07,0.0396 0.15909,-0.20391 0.34849,-0.49977 l 0,0 c 0.2339,-0.49014 0.3621,-1.07973 0.48301,-1.70634 l 0,0 c 0.3646,-1.96543 0.41245,-4.0324 0.43533,-6.03486 l 0,0 c 0.0621,-6.18592 -0.45069,-12.55479 -0.87545,-17.67274 l 0,0 c -0.56056,-6.74328 -1.25782,-13.34753 -1.6641,-17.33556 l 0,0 c -0.24714,-2.42595 -0.43853,-4.35195 -0.54898,-5.68724 -0.0575,-0.69521 -0.0934,-1.23375 -0.10463,-1.60054 l 0,0 c -0.006,-0.1868 -0.005,-0.32983 0.002,-0.42727 l 0,0 c 0,0 0,0 0,-1e-5 0.0181,-0.0513 0.0274,-0.0893 0.033,-0.11504 0,0 0,0 0,0 0,0 0,0 0,0 0.006,-0.0134 0.009,-0.0232 0.0104,-0.0298 7.9e-4,-0.0102 7.9e-4,-0.0102 7.9e-4,-0.0102 0,0 0,-10e-6 0.002,-3.1e-4 0.005,0.0157 0.01,0.0244 0.02,0.0354 0,0 0,0 0,0 0,0 0,0 0,0 0.0127,0.023 0.0325,0.0568 0.0646,0.10084 0,0 0,0 0,0 l 0,0 c 0.035,0.0914 0.0763,0.22829 0.12359,0.40937 l 0,0 c 0.0931,0.35649 0.20889,0.88184 0.34471,1.56801 v 0 c 0.26095,1.31826 0.59461,3.22206 0.97516,5.63709 l 0,0 c 0.65845,4.17852 1.5317,10.34018 2.26875,17.31096 l 0,0 c 0.54453,5.14237 1.15733,11.4993 1.15625,17.82618 l 0,0 c 0.003,2.02431 -0.0377,4.19227 -0.41697,6.35495 l 0,0 c -0.11514,0.68339 -0.28558,1.42097 -0.61233,2.15478 l 0,0 c -0.16564,0.47914 -0.55879,1.03128 -1.27001,1.42687 -2.6105,1.18295 -5.48552,1.64147 -8.37544,1.65486 -0.22006,0.001 -0.43947,-5.4e-4 -0.65807,-0.005 -2.65132,-0.0227 -5.34642,-0.34412 -7.80896,-1.4625 -0.60392,-0.3234 -0.98108,-0.78696 -1.15633,-1.2464 -0.26612,-0.61473 -0.37923,-1.21962 -0.42993,-1.76306 -0.1804,-1.71289 -0.0317,-3.38826 0.13809,-4.93883 0.52922,-4.97507 1.60573,-10.20156 2.40651,-14.42597 1.29582,-6.84743 2.15025,-11.40245 2.82128,-16.55081 1.09947,-8.55921 0.35701,-13.6607 0.57952,-13.70892 z"
           id="path825"
           inkscape:connector-curvature="0"
           inkscape:path-effect="#path-effect827"
           inkscape:original-d="m 131.91369,222.20101 c 3.07555,14.19181 -8.6672,49.62794 -3.96875,51.78274 3.47275,1.59267 10.99164,2.12041 16.06399,-0.18899 5.06655,-2.30676 -2.26786,-51.97173 -2.26786,-51.97173"
           sodipodi:nodetypes="cssc"
           inkscape:label="outline" />
      </g>
      <g
         id="g915"
         inkscape:label="rearleg">
        <path
           style="fill:#ffffff;fill-opacity:1;stroke:none;stroke-width:0.25427464px;stroke-linecap:butt;stroke-linejoin:miter;stroke-opacity:1"
           d="m 175.68091,220.84404 c 3.35082,0.11083 13.32652,-14.87391 9.97797,-1.26599 0.0256,2.90686 -3.53735,5.95561 -5.14897,8.11861 -0.99089,0.78898 -0.50688,2.78097 1.78939,1.53984 1.68593,-1.05165 3.79602,-0.50194 4.09096,1.8631 2.04658,6.73661 3.06303,13.76806 3.86181,20.76947 0.5209,5.75426 1.09072,11.58002 0.40786,17.34303 -0.26009,2.43736 -1.12226,4.66438 -3.64012,4.92007 -4.04595,0.83037 -8.4214,1.06635 -12.3602,-0.40548 -1.88312,-0.59293 -2.81567,-2.6619 -2.61305,-4.5987 0.27422,-6.65171 2.00382,-13.11314 3.22761,-19.61998 0.68147,-4.03744 2.14371,-8.3176 0.62629,-12.33073 -1.49996,-2.46933 -3.79335,-4.31458 -5.31336,-6.78855 -2.47658,-3.54957 -5.69674,-9.54773 -6.11437,-11.72736 0,0 7.40402,2.05684 11.20818,2.18267 z"
           id="path829-2"
           inkscape:connector-curvature="0"
           sodipodi:nodetypes="scccccccccccccs"
           inkscape:label="fill" />
        <path
           style="fill:#000000;stroke:none;stroke-width:0.26458332px;stroke-linecap:butt;stroke-linejoin:miter;stroke-opacity:1"
           d="m 164.23065,217.81399 c 0.25296,-0.0843 1.50187,5.81828 7.49334,12.79382 0.89997,1.05176 1.84171,1.99357 2.94689,3.12026 0.67021,0.66829 1.46266,1.46609 2.02326,2.51712 0.43757,0.86775 0.65005,1.77267 0.79708,2.64717 0.25767,1.42928 0.31497,2.95618 0.099,4.50323 -0.72783,5.20804 -1.99861,10.84245 -3.08939,16.84745 -0.43392,2.39626 -0.87743,4.90559 -1.08296,7.38759 -0.0704,0.87215 -0.12036,1.72772 -0.0628,2.54366 0.0689,0.5584 0.0808,1.01125 0.25029,1.21961 0,0 0,0 0,0 0.0869,0.20932 0.39387,0.39593 0.76325,0.61924 0.49558,0.26685 1.08485,0.44157 1.72364,0.59565 0,0 1e-5,0 1e-5,0 1.5799,0.37204 3.25891,0.46709 4.9942,0.45465 0.51651,-0.006 1.03307,-0.022 1.54779,-0.0517 1.1606,-0.0669 2.2966,-0.2012 3.39827,-0.43305 0.60732,-0.13066 1.17195,-0.27135 1.66789,-0.48337 0.34381,-0.19628 0.58797,-0.25353 0.55059,-0.30425 1.10946,-1.46975 1.13221,-3.75384 1.29157,-5.96549 0.17086,-3.49673 -0.0562,-7.07801 -0.2862,-10.41772 -0.42742,-6.16248 -1.22767,-11.88973 -2.1548,-16.99624 -0.40335,-2.21647 -0.79773,-4.19592 -1.32242,-6.13005 -0.17707,-0.64787 -0.34713,-1.24377 -0.57264,-1.7989 -0.22231,-0.3513 -0.20295,-0.58794 -0.17558,-0.46866 -0.29101,-0.18926 -0.71412,-0.2256 -1.12627,-0.18423 -0.44469,0.049 -0.93309,0.22197 -1.43671,0.38632 -0.43748,0.15893 -0.9529,0.33556 -1.57357,0.3562 -0.67181,-0.0164 -1.23416,-0.37528 -1.54165,-0.91674 -0.20947,-0.45703 -0.20521,-0.89266 -0.0803,-1.2295 0.14752,-0.44738 0.37266,-0.80676 0.58741,-1.09731 0.64476,-0.8989 1.46964,-1.74282 2.05488,-2.38155 1.77516,-1.97673 2.58724,-2.96741 3.26779,-4.28117 0.55645,-1.0742 0.69115,-1.73263 0.78181,-1.71812 0.0659,0.0105 0.13203,0.70713 -0.2985,1.92628 -0.48784,1.38145 -1.33879,2.72737 -2.97519,4.73662 -0.55381,0.69289 -1.31984,1.57292 -1.8371,2.3904 -0.16886,0.27632 -0.32534,0.53598 -0.37746,0.77486 -0.0147,0.14322 -0.0358,0.25935 0.005,0.25287 0.0653,0.12952 0.25182,0.23413 0.38367,0.19948 0.30561,-3e-5 0.65842,-0.16857 1.13133,-0.33479 0.48582,-0.18901 1.05098,-0.4049 1.69341,-0.51728 0.64906,-0.11609 1.38326,-0.0524 2.07471,0.29414 0.60805,0.43628 0.84129,0.92753 0.88334,1.19966 0.28568,0.64718 0.49926,1.3006 0.69895,1.95975 0.60535,1.98633 1.0707,4.01394 1.53061,6.23651 1.0658,5.14099 1.98204,10.92815 2.49336,17.18165 0.27601,3.35242 0.53899,7.00856 0.38907,10.67676 -0.0382,2.20034 -0.16895,4.86219 -1.65588,7.14719 -0.51797,0.64413 -1.0887,0.96921 -1.52773,1.10236 -0.70195,0.29217 -1.4041,0.47741 -2.07837,0.61596 -1.23225,0.25841 -2.47986,0.40922 -3.73201,0.48201 -0.55535,0.0323 -1.10832,0.049 -1.65712,0.0533 -1.83928,0.0216 -3.69893,-0.0976 -5.52933,-0.52451 0,0 -1e-5,-1e-5 -1e-5,-1e-5 -0.74239,-0.1695 -1.51079,-0.41442 -2.25803,-0.80407 -0.5873,-0.28206 -1.18886,-0.75574 -1.64468,-1.47283 0,0 0,-1e-5 0,-1e-5 -0.42967,-0.8146 -0.53673,-1.59385 -0.54269,-2.20816 -0.0582,-0.9986 -7.6e-4,-1.96393 0.0847,-2.87749 0.2396,-2.61735 0.71618,-5.18753 1.18221,-7.58955 1.1731,-6.06545 2.53178,-11.63296 3.36315,-16.72988 0.21943,-1.331 0.20239,-2.67166 0.0108,-3.94093 -0.13698,-0.83137 -0.26899,-1.57265 -0.57236,-2.18683 -0.34561,-0.76102 -1.02895,-1.46548 -1.67165,-2.18074 -1.05868,-1.15347 -1.9979,-2.16922 -2.89629,-3.30785 -6.10067,-7.76212 -6.05746,-13.80397 -6.40311,-13.68883 z"
           id="path829"
           inkscape:connector-curvature="0"
           inkscape:path-effect="#path-effect831"
           inkscape:original-d="m 164.23065,217.81399 c 4.41748,13.26159 10.20536,15.7805 11.71727,18.80431 0.37619,0.75239 1.20679,3.47992 0.7288,6.63908 -1.44303,9.53728 -5.81498,25.66525 -4.0361,28.7017 1.92127,3.27949 15.11744,2.5243 16.53646,0.47247 1.81447,-2.62364 1.73677,-9.15875 1.13609,-17.10358 -0.87672,-11.5958 -3.68221,-25.31282 -4.91585,-25.98571 -2.07887,-1.13392 -4.53571,1.7009 -5.48066,0 -0.94494,-1.70089 5.29167,-5.66964 6.04762,-10.39434"
           sodipodi:nodetypes="csssssssc"
           inkscape:label="outline" />
      </g>
      <g
         id="g891"
         inkscape:label="mouth">
        <path
           style="fill:#ffffff;fill-opacity:1;stroke:none;stroke-width:0.25090525px;stroke-linecap:butt;stroke-linejoin:miter;stroke-opacity:1"
           d="m 99.414543,180.72664 c 1.020667,-0.0244 11.417897,-0.99783 16.786017,0.59283 5.35071,1.58551 14.3525,8.61984 14.3525,8.61984 0.73062,0.31878 1.89492,1.22199 0.34583,1.68298 -5.1265,1.5256 -10.30579,2.51867 -15.59876,2.79877 -6.16808,0.27408 -12.75692,-0.46971 -17.909075,-3.94626 -2.171209,-1.54154 -4.186789,-3.64781 -4.674927,-6.25143 -0.138707,-1.7132 1.843865,-2.55933 3.298887,-2.8888 0.969349,-0.2195 1.766193,-0.56892 3.399528,-0.60793 z"
           id="path833-5"
           inkscape:connector-curvature="0"
           sodipodi:nodetypes="sasscccss"
           inkscape:label="fill" />
        <path
           style="fill:#000000;stroke:none;stroke-width:0.26458332px;stroke-linecap:butt;stroke-linejoin:miter;stroke-opacity:1"
           d="m 98.221401,180.60416 c 0.0025,0.0119 -0.0011,0.0246 -0.01072,0.039 0,0 0,0 0,0 -0.0087,0.0127 -0.02221,0.0264 -0.04045,0.0412 -0.0356,0.0287 -0.08936,0.0614 -0.160301,0.0982 0,0 0,0 0,0 l 0,0 c -0.134446,0.0697 -0.330893,0.15438 -0.583638,0.25717 l 0,0 c -0.376444,0.15314 -1.121702,0.43922 -1.794556,0.73972 l 0,0 c -0.537236,0.2414 -1.222901,0.56227 -1.791589,0.98326 l 0,0 c -0.36006,0.3047 -0.770883,0.62468 -0.750657,0.91311 l 0,0 c -0.05806,0.17658 0.09565,0.45077 0.225055,0.87665 l 0,0 c 0.237851,0.60765 0.59288,1.19973 1.040967,1.80754 l 0,0 10e-7,0 h 0 c 1.253617,1.70101 3.099652,3.14263 5.462393,4.29339 2.083766,1.01191 4.408776,1.69238 6.975926,2.10401 1.56954,0.25166 3.14177,0.38877 4.65628,0.45694 1e-5,0 1e-5,0 1e-5,0 5.59772,0.24327 10.86113,-0.49048 14.34615,-1.03588 3.60529,-0.56423 5.77053,-0.99287 5.83397,-0.74982 0.0502,0.19245 -2.00898,1.0266 -5.59828,1.91618 -3.50034,0.86754 -8.78546,1.85052 -14.64612,1.68945 0,0 0,0 0,0 -1.57725,-0.041 -3.22491,-0.17177 -4.88822,-0.44199 -2.7169,-0.44139 -5.218,-1.21325 -7.467015,-2.35498 -2.557762,-1.29498 -4.563499,-3.02422 -5.896565,-5.02346 l 0,0 0,0 0,0 c -0.474068,-0.71134 -0.847849,-1.44788 -1.093012,-2.2135 l 0,0 c -0.16472,-0.41034 -0.295282,-0.9582 -0.180026,-1.58777 l 0,0 c 0.26625,-0.8504 0.880475,-1.32516 1.373076,-1.5775 l 0,0 c 0.74213,-0.4349 1.510621,-0.69131 2.106144,-0.86002 l 0,0 c 0.801685,-0.22957 1.497831,-0.35156 1.965516,-0.40658 l 0,0 c 0.276502,-0.0326 0.494049,-0.0443 0.647382,-0.0391 l 0,0 c 0,0 10e-7,0 10e-7,0 0.08072,0.003 0.143662,0.0102 0.18841,0.022 0.02288,0.006 0.04094,0.0132 0.05414,0.0214 0,0 0,0 0,0 0.01468,0.009 0.02319,0.0196 0.02572,0.0315 z"
           id="path833"
           inkscape:connector-curvature="0"
           inkscape:path-effect="#path-effect835"
           inkscape:original-d="m 98.221551,180.60413 c 0,0 -5.345391,1.06907 -5.746296,2.93996 -0.400904,1.87089 5.879931,16.57071 39.154995,7.88445"
           sodipodi:nodetypes="csc"
           inkscape:label="outline" />
      </g>
      <g
         id="g948"
         inkscape:label="ear">
        <path
           style="fill:#ffffff;fill-opacity:1;stroke:none;stroke-width:0.24860029px;stroke-linecap:butt;stroke-linejoin:miter;stroke-opacity:1"
           d="m 127.39202,146.90523 c -0.0244,-4.84393 2.62607,-9.46791 5.60933,-13.0021 1.19302,-1.24886 2.75145,-2.77739 4.54573,-2.14726 2.94606,1.16917 4.48009,4.50241 5.49844,7.51951 1.69763,5.40586 2.05868,11.25399 1.48807,16.91324 -0.50144,4.15803 -1.45811,8.48289 -3.92953,11.80082 -1.2272,1.27503 -8.59104,-0.20602 -11.12689,-3.10363 -3.15113,-3.60066 -1.98961,-14.21587 -1.98961,-14.21587 0.0457,-0.58348 -0.18911,-2.45022 -0.0955,-3.76471 z"
           id="path917-1"
           inkscape:connector-curvature="0"
           sodipodi:nodetypes="ccccccacc"
           inkscape:label="fill" />
        <path
           style="fill:#000000;stroke:none;stroke-width:0.26458332px;stroke-linecap:butt;stroke-linejoin:miter;stroke-opacity:1"
           d="m 127.48756,150.66994 c 0.64007,-0.0132 -2.44023,-6.36858 3.1892,-14.968 0.85562,-1.31011 1.97352,-2.66628 3.45374,-3.71854 0.6987,-0.60763 1.85461,-1.24272 3.30297,-0.96864 1.26934,0.37903 2.35312,1.15111 3.20394,2.09929 1.00501,1.10447 1.76573,2.38535 2.37531,3.73003 0.15154,0.33257 0.29568,0.66917 0.43266,1.00966 1.27396,3.16659 1.84652,6.46743 2.10623,9.47993 0.39591,4.47692 0.0758,8.43222 -0.62659,11.77054 -1.35181,6.52618 -4.21295,9.54148 -4.47488,9.33915 -0.22116,-0.17082 2.12277,-3.46048 3.08743,-9.59245 0.50054,-3.25182 0.66727,-7.0357 0.20626,-11.34086 -0.31691,-2.89786 -0.88337,-6.02763 -2.0625,-8.94503 -0.12705,-0.31435 -0.26041,-0.62433 -0.40036,-0.92984 -0.56565,-1.22792 -1.20842,-2.34791 -2.03391,-3.25748 -0.69756,-0.75546 -1.479,-1.36294 -2.32837,-1.60396 -0.33223,-0.24481 -1.01876,0.27581 -1.78073,0.67333 -1.25084,0.82764 -2.27047,2.00747 -3.1123,3.17795 -5.09738,7.10299 -4.19125,14.03777 -4.5381,14.04492 z"
           id="path917"
           inkscape:connector-curvature="0"
           inkscape:path-effect="#path-effect919"
           inkscape:original-d="m 127.48756,150.66994 c -0.26727,-12.96257 7.34083,-19.46276 9.68852,-18.77569 8.07543,2.36333 10.7576,26.86059 3.27406,36.54911"
           sodipodi:nodetypes="csc"
           inkscape:label="outline" />
        <path
           style="fill:#000000;stroke:none;stroke-width:0.26458332px;stroke-linecap:butt;stroke-linejoin:miter;stroke-opacity:1"
           d="m 138.83469,138.37137 c 0.42344,-0.34744 1.75729,1.39795 2.44103,4.52266 0.40582,1.71869 0.66084,3.67083 0.74142,5.88757 0.0122,0.33529 0.02,0.66688 0.0242,0.99386 0.0349,2.52704 -0.15111,4.64998 -0.50083,6.41884 -0.18278,0.93097 -0.38928,1.64276 -0.65068,2.23261 -0.33092,0.87585 -0.83173,1.17318 -0.95837,1.0194 0.0277,0.0336 -0.001,-0.59215 0.11784,-1.24906 0.0691,-0.67686 0.0949,-1.15899 0.13621,-2.16457 0.0726,-1.85927 0.0849,-3.62876 0.012,-6.21869 -0.009,-0.31797 -0.0197,-0.64005 -0.0317,-0.96472 -0.0808,-2.19644 -0.21327,-3.96083 -0.42624,-5.67727 -0.42661,-2.97311 -1.15828,-4.59269 -0.90485,-4.80063 z"
           id="path921"
           inkscape:connector-curvature="0"
           inkscape:path-effect="#path-effect923"
           inkscape:original-d="m 138.83469,138.37137 c 3.02381,3.68526 2.70315,19.75203 1.09676,21.07494"
           sodipodi:nodetypes="cc"
           inkscape:label="depth" />
      </g>
    </g>
  </g>
</svg>
